HIERARCHY
ROOT root
{
	OFFSET 0.000000 0.000000 0.000000
	CHANNELS 6 Xposition Yposition Zposition Zrotation Yrotation Xrotation
	JOINT lhip
	{
		OFFSET 0.058581 -0.082280 -0.017664
		CHANNELS 3 Zrotation Yrotation Xrotation
		JOINT lknee
		{
			OFFSET 0.043451 -0.386469 0.008037
			CHANNELS 3 Zrotation Yrotation Xrotation
			JOINT lankle
			{
				OFFSET -0.014790 -0.426874 -0.037428
				CHANNELS 3 Zrotation Yrotation Xrotation
				JOINT ltoe
				{
					OFFSET 0.041054 -0.060286 0.122042
					CHANNELS 3 Zrotation Yrotation Xrotation
					End Site
					{
						OFFSET 0.000000 0.000000 0.000000
					}
				}
			}
		}
	}
	JOINT rhip
	{
		OFFSET -0.060310 -0.090513 -0.013543
		CHANNELS 3 Zrotation Yrotation Xrotation
		JOINT rknee
		{
			OFFSET -0.043257 -0.383688 -0.004843
			CHANNELS 3 Zrotation Yrotation Xrotation
			JOINT rankle
			{
				OFFSET 0.019056 -0.420046 -0.034562
				CHANNELS 3 Zrotation Yrotation Xrotation
				JOINT rtoe
				{
					OFFSET -0.034840 -0.062106 0.130323
					CHANNELS 3 Zrotation Yrotation Xrotation
					End Site
					{
						OFFSET 0.000000 0.000000 0.000000
					}
				}
			}
		}
	}
	JOINT lowerback
	{
		OFFSET 0.004439 0.124404 -0.038385
		CHANNELS 3 Zrotation Yrotation Xrotation
		JOINT upperback
		{
			OFFSET 0.004488 0.137956 0.026820
			CHANNELS 3 Zrotation Yrotation Xrotation
			JOINT chest
			{
				OFFSET -0.002265 0.056032 0.002855
				CHANNELS 3 Zrotation Yrotation Xrotation
				JOINT lowerneck
				{
					OFFSET -0.013390 0.211636 -0.033468
					CHANNELS 3 Zrotation Yrotation Xrotation
					JOINT upperneck
					{
						OFFSET 0.010113 0.088937 0.050410
						CHANNELS 3 Zrotation Yrotation Xrotation
						End Site
						{
							OFFSET 0.000000 0.000000 0.000000
						}
					}
				}
				JOINT lclavicle
				{
					OFFSET 0.071702 0.114000 -0.018898
					CHANNELS 3 Zrotation Yrotation Xrotation
					JOINT lshoulder
					{
						OFFSET 0.122921 0.045205 -0.019046
						CHANNELS 3 Zrotation Yrotation Xrotation
						JOINT lelbow
						{
							OFFSET 0.255332 -0.015649 -0.022946
							CHANNELS 3 Zrotation Yrotation Xrotation
							JOINT lwrist
							{
								OFFSET 0.265709 0.012698 -0.007375
								CHANNELS 3 Zrotation Yrotation Xrotation
								End Site
								{
									OFFSET 0.000000 0.000000 0.000000
								}
							}
						}
					}
				}
				JOINT rclavicle
				{
					OFFSET -0.082954 0.112472 -0.023707
					CHANNELS 3 Zrotation Yrotation Xrotation
					JOINT rshoulder
					{
						OFFSET -0.113228 0.046853 -0.008472
						CHANNELS 3 Zrotation Yrotation Xrotation
						JOINT relbow
						{
							OFFSET -0.260127 -0.014369 -0.031269
							CHANNELS 3 Zrotation Yrotation Xrotation
							JOINT rwrist
							{
								OFFSET -0.269108 0.006794 -0.006027
								CHANNELS 3 Zrotation Yrotation Xrotation
								End Site
								{
									OFFSET 0.000000 0.000000 0.000000
								}
							}
						}
					}
				}
			}
		}
	}
}
MOTION
Frames: 14
Frame Time: 0.033333
1.134533 0.157589 0.988409 -84.505879 12.126045 74.859341 9.821679 1.165524 17.231151 -5.182259 -24.401760 14.050474 6.505277 13.431473 -27.282162 0.000000 -0.000000 0.000000 -6.073354 -3.974731 -44.520686 3.463956 -21.919852 73.785574 6.957612 -5.229908 -17.905143 0.000000 -0.000000 0.000000 -4.374112 -5.473979 12.797049 5.795993 -0.525482 8.744850 1.376109 -4.210074 6.874955 12.346691 0.841567 7.920905 1.708434 -8.800722 14.047917 -22.631719 8.480912 3.640658 -59.337531 -7.607948 8.956163 8.709087 -28.865605 4.208740 2.138635 -1.674630 -10.337009 25.497327 -8.269503 0.805458 61.264507 -1.607800 10.128900 -14.256453 28.923353 -0.718359 9.593561 1.989568 -6.000964 
1.125753 0.158945 0.988111 -83.697972 12.927033 74.099476 10.791823 0.959265 18.195248 -5.206287 -25.098344 15.029593 6.166141 13.347400 -28.324001 0.000000 -0.000000 0.000000 -7.311952 -4.056632 -43.813397 4.018465 -20.617435 67.183520 6.802871 -6.481979 -16.304356 0.000000 -0.000000 0.000000 -4.338075 -5.526691 12.617537 5.738792 -0.594923 9.027417 1.512537 -4.242837 6.876498 12.362112 0.039305 8.669191 2.025444 -8.881787 14.081755 -22.393613 8.883290 4.070855 -59.143819 -8.002216 8.820468 8.628230 -29.178387 4.661475 2.351171 -1.489482 -10.905195 25.647177 -8.551140 1.005900 61.299428 -1.672903 10.159929 -14.080338 28.189379 -0.776244 9.555416 1.459755 -5.773715 
1.116320 0.160271 0.986889 -82.631692 13.630017 73.837656 11.642423 0.659022 18.571760 -5.346972 -25.877224 16.265025 5.957040 13.131895 -29.388480 0.000000 -0.000000 0.000000 -8.393380 -4.407304 -42.481674 4.268670 -18.940735 59.783408 6.537750 -7.487069 -14.551371 0.000000 -0.000000 0.000000 -4.457236 -5.492055 12.171467 5.775226 -0.799619 8.837552 1.721626 -4.455440 6.944663 12.451824 -1.001400 9.497276 2.480086 -9.004075 13.858372 -22.176085 9.489852 4.528655 -58.895352 -8.356016 8.764285 8.295928 -29.151651 5.413701 2.140252 -1.765585 -11.887772 25.648758 -8.934491 1.101684 61.234789 -1.976611 10.419906 -13.922237 27.772373 -0.853645 8.933626 1.605585 -5.982586 
1.106403 0.161531 0.984979 -81.603933 14.104350 73.447324 12.147887 0.411183 19.007723 -5.421088 -26.472815 17.691818 5.871081 13.086945 -30.350360 0.000000 -0.000000 0.000000 -9.462432 -4.552611 -40.508434 4.817673 -16.709418 52.162426 6.785103 -8.273898 -9.974391 0.000000 -0.000000 0.000000 -4.452588 -5.307961 12.665377 5.504016 -0.926929 7.580528 1.773654 -4.839520 6.742770 12.148908 -1.835802 10.363783 3.037863 -8.385926 14.323563 -22.071118 10.127182 5.302753 -58.299117 -8.494875 8.206874 7.847166 -28.721206 6.002183 2.643941 -2.347918 -11.818478 25.681740 -9.716655 1.229874 61.091070 -2.389977 10.541507 -13.444733 27.482943 -0.853549 8.104923 1.598785 -5.924524 
1.095531 0.163295 0.982250 -80.875194 14.439886 73.309862 12.789248 0.271486 19.253591 -5.874401 -27.107534 19.114586 5.716061 12.920949 -31.429352 0.000000 -0.000000 0.000000 -10.310884 -4.598040 -38.713314 5.141951 -14.873191 45.307744 6.673210 -8.768291 -8.573475 0.000000 -0.000000 0.000000 -4.719211 -5.020504 11.733149 5.457923 -1.115116 7.735244 1.788575 -4.896325 6.756318 12.296069 -2.753823 11.012657 3.166228 -8.811708 14.487898 -21.728725 10.434199 5.739355 -57.886156 -8.751358 8.061119 7.494123 -28.034163 6.528407 2.771633 -2.474406 -11.892313 25.724776 -9.995597 1.401023 61.129232 -2.746439 10.707098 -13.487565 27.343089 -0.901686 7.700943 1.472488 -6.130836 
1.084286 0.165362 0.979924 -80.500460 14.666233 72.735048 13.354101 0.277684 20.104159 -6.058199 -27.392006 20.231041 5.194108 12.778253 -32.376391 0.000000 -0.000000 0.000000 -10.876719 -4.660035 -36.426237 4.921961 -13.613323 39.424588 6.910839 -9.178093 -8.327837 0.000000 -0.000000 0.000000 -4.870510 -4.643882 11.344185 5.141352 -1.222535 7.760381 1.771430 -4.807469 6.716630 12.180187 -2.922622 11.698366 3.622472 -8.741216 14.681297 -21.461469 10.545820 6.244622 -57.285764 -8.634356 7.611793 7.226254 -27.809835 6.856024 2.975719 -2.563402 -11.892065 25.702494 -10.083745 1.600714 61.261853 -3.030598 10.447854 -13.399567 26.979752 -0.856187 7.271420 1.349400 -6.329962 
1.072452 0.167880 0.976816 -80.386950 14.754663 72.257824 13.643816 0.040195 21.043815 -6.174770 -27.613350 21.131509 4.884914 13.047044 -33.330896 0.000000 -0.000000 0.000000 -11.354886 -4.709579 -34.576508 4.753507 -12.705714 34.719781 7.362677 -9.534865 -6.105921 0.000000 -0.000000 0.000000 -4.965296 -4.302344 10.771970 4.809837 -1.207793 7.977938 1.698642 -4.647169 6.675719 11.977573 -3.664814 12.537597 4.052854 -8.771611 14.337055 -21.228696 10.822954 6.436398 -56.859521 -8.640070 7.227266 6.986072 -26.981258 6.561788 3.139317 -2.716147 -12.227774 25.375452 -10.241488 1.823946 61.410069 -3.268240 10.415119 -13.026759 26.665479 -0.735487 7.194636 1.327141 -6.333574 
1.060358 0.172191 0.973428 -80.604073 14.797717 72.026932 14.249171 -0.023171 21.693829 -6.694175 -27.707661 22.219884 4.629897 13.175984 -34.247058 0.000000 -0.000000 0.000000 -11.592744 -4.829539 -33.935493 4.927939 -12.173261 32.464609 8.027537 -9.350193 -4.593545 0.000000 -0.000000 0.000000 -5.243861 -4.132939 10.073363 4.592077 -0.963362 7.961810 1.629787 -4.476343 6.588552 11.899340 -4.101752 12.988631 4.137540 -8.792539 14.724251 -21.040418 11.143818 6.778139 -56.185230 -8.156766 6.798361 6.921128 -26.865902 6.481884 2.273519 -2.573041 -12.081467 25.198351 -10.243726 2.170860 61.268003 -3.680517 10.352526 -12.703591 26.600881 -0.330438 8.031206 0.726193 -6.539695 
1.048405 0.176581 0.970371 -80.774168 14.927946 71.458888 14.723125 -0.194295 22.796289 -6.739323 -27.895873 23.018536 4.255476 13.575308 -34.874801 0.000000 -0.000000 0.000000 -11.587113 -4.856697 -33.046268 4.986311 -11.657825 31.183929 8.343203 -9.373276 -3.772878 0.000000 -0.000000 0.000000 -5.276800 -3.899974 10.052175 4.370909 -0.817223 8.104664 1.536452 -4.450534 6.455575 11.821920 -4.136945 13.476078 4.078391 -8.459389 14.818078 -21.153388 11.298327 6.831262 -55.293090 -7.717255 6.314610 6.749358 -26.689682 6.176588 2.644068 -2.698799 -11.456634 25.090450 -10.330989 2.222698 60.970590 -4.029495 10.294872 -12.199715 26.712443 0.045667 7.681841 0.584708 -6.404635 
1.035237 0.181795 0.966645 -80.445977 15.142277 71.566220 15.347610 -0.548395 23.318195 -6.949832 -28.396724 23.736688 4.225845 14.154323 -35.851888 0.000000 -0.000000 0.000000 -11.799521 -5.073346 -32.726684 5.080882 -11.612977 30.890574 8.270114 -9.581064 -3.100368 0.000000 -0.000000 0.000000 -5.490222 -4.166819 9.161653 4.347311 -0.923538 8.510190 1.570081 -4.492061 6.699669 11.745905 -3.864933 13.656875 4.213839 -7.862268 14.468819 -20.934806 11.535054 7.149619 -55.115219 -7.510916 6.033732 6.612656 -26.358604 6.554652 3.594383 -2.238302 -11.611540 24.935783 -10.408384 2.443705 60.592217 -4.156915 10.182442 -11.927937 26.779745 0.290680 6.438939 0.383769 -6.438573 
1.023113 0.187680 0.962436 -80.105134 15.362097 71.721658 15.789109 -1.056254 23.796450 -6.807024 -28.657656 24.324558 4.139040 14.726011 -36.859420 0.000000 -0.000000 0.000000 -11.972264 -5.315732 -32.902988 5.321583 -11.715529 31.589926 8.944966 -9.636306 -2.074378 0.000000 -0.000000 0.000000 -5.531361 -4.227187 9.246310 4.414026 -1.097068 8.195598 1.715873 -4.556362 6.480935 11.582261 -4.021759 14.027530 4.213905 -7.868401 14.711558 -20.758245 11.679074 7.350082 -55.047822 -7.306036 5.819234 6.362553 -25.856041 6.815234 3.023787 -2.143209 -11.150421 24.790671 -10.843143 2.418226 60.036822 -4.610560 9.700260 -12.123685 26.601615 0.175720 6.685551 1.027652 -5.739155 
1.009758 0.194088 0.958519 -79.803286 15.501516 71.956269 16.514113 -1.458422 24.583716 -6.721156 -28.999403 24.193277 4.089067 15.022057 -37.952152 0.000000 -0.000000 0.000000 -12.144481 -5.126728 -32.961116 5.726123 -11.652636 32.116693 9.555215 -9.388156 -1.405803 0.000000 -0.000000 0.000000 -5.614466 -4.456692 8.927533 4.547340 -1.116518 8.368342 1.631672 -4.754683 6.534257 12.174601 -4.099782 13.983912 4.293901 -7.783049 14.597015 -20.759689 11.758291 7.499596 -54.635083 -7.360939 5.811964 5.976255 -25.372128 6.559063 3.400139 -2.781835 -11.217052 24.854157 -11.215902 2.294044 59.607908 -4.950838 9.553463 -12.241576 26.362175 -0.364145 6.140339 0.947880 -5.967175 
0.997145 0.200479 0.954113 -79.546473 15.457585 72.404989 16.972256 -1.532425 24.984197 -6.625211 -29.668226 24.449505 4.060153 15.361216 -38.908907 0.000000 -0.000000 0.000000 -12.307956 -5.118423 -33.593380 6.114250 -11.693418 33.120116 10.003674 -9.024688 -1.254183 0.000000 -0.000000 0.000000 -5.694500 -4.698861 9.023879 4.682356 -1.304774 8.252228 1.761509 -4.873172 6.460771 12.155620 -4.058225 14.035944 4.177484 -7.773845 14.478127 -21.061710 11.809998 7.498539 -54.352667 -7.475723 5.647073 5.802105 -25.160859 6.497417 3.365767 -2.879991 -10.711166 24.832224 -11.408769 2.354446 59.034183 -5.237304 9.213851 -12.219436 26.083826 -0.639901 5.888732 0.760443 -5.811029 
0.983694 0.207802 0.949343 -79.535261 15.290730 73.245418 17.125428 -1.984369 25.124361 -6.492872 -29.700201 24.532898 4.077284 16.130303 -39.724351 0.000000 -0.000000 0.000000 -12.439459 -5.106874 -34.889682 6.617070 -12.137716 34.301421 10.491492 -8.714490 -0.521876 0.000000 -0.000000 0.000000 -5.481571 -4.953954 8.820802 4.800602 -1.244612 8.025859 1.717185 -5.043883 6.485025 12.221109 -4.078531 14.109104 4.058741 -7.629577 14.518656 -21.112136 11.941224 7.388971 -54.267375 -7.633806 5.833916 5.634458 -25.170469 6.409630 3.225160 -2.883245 -10.406736 24.822142 -11.895129 2.190011 58.490015 -5.705199 9.166736 -12.042337 25.804476 -0.831222 5.961576 0.855033 -5.753188 
